<svg width="81" height="38" viewBox="0 0 81 38" fill="none" xmlns="http://www.w3.org/2000/svg">
<path d="M17.9318 0.636363V21H13.3182L5.96023 10.3011H5.84091V21H0.3125V0.636363H5.00568L12.2443 11.2955H12.4034V0.636363H17.9318ZM40.2741 10.8182C40.2741 13.0852 39.8333 14.9976 38.9517 16.5554C38.0701 18.1065 36.8802 19.2831 35.3821 20.0852C33.884 20.8807 32.2135 21.2784 30.3707 21.2784C28.5147 21.2784 26.8376 20.8774 25.3395 20.0753C23.848 19.2666 22.6615 18.0866 21.7798 16.5355C20.9048 14.9777 20.4673 13.072 20.4673 10.8182C20.4673 8.55114 20.9048 6.64205 21.7798 5.09091C22.6615 3.53314 23.848 2.35653 25.3395 1.56108C26.8376 0.758995 28.5147 0.357954 30.3707 0.357954C32.2135 0.357954 33.884 0.758995 35.3821 1.56108C36.8802 2.35653 38.0701 3.53314 38.9517 5.09091C39.8333 6.64205 40.2741 8.55114 40.2741 10.8182ZM34.5866 10.8182C34.5866 9.59848 34.4242 8.57102 34.0994 7.7358C33.7812 6.89394 33.3073 6.25757 32.6776 5.8267C32.0545 5.3892 31.2855 5.17045 30.3707 5.17045C29.456 5.17045 28.6837 5.3892 28.054 5.8267C27.4309 6.25757 26.9569 6.89394 26.6321 7.7358C26.3139 8.57102 26.1548 9.59848 26.1548 10.8182C26.1548 12.0379 26.3139 13.0687 26.6321 13.9105C26.9569 14.7457 27.4309 15.3821 28.054 15.8196C28.6837 16.2505 29.456 16.4659 30.3707 16.4659C31.2855 16.4659 32.0545 16.2505 32.6776 15.8196C33.3073 15.3821 33.7812 14.7457 34.0994 13.9105C34.4242 13.0687 34.5866 12.0379 34.5866 10.8182ZM47.1151 0.636363L51.2912 14.9943H51.4503L55.6264 0.636363H61.8707L55.1491 21H47.5923L40.8707 0.636363H47.1151ZM65.7859 21H59.82L66.5415 0.636363H74.0984L80.82 21H74.854L70.3995 6.24432H70.2404L65.7859 21ZM64.6722 12.9659H75.8881V17.1023H64.6722V12.9659Z" fill="#2C4C4B"/>
<path d="M1.28 37C0.89 37 0.59 36.895 0.38 36.685C0.17 36.475 0.065 36.175 0.065 35.785V27.64C0.065 27.25 0.17 26.95 0.38 26.74C0.59 26.53 0.89 26.425 1.28 26.425H6.515C6.815 26.425 7.04 26.505 7.19 26.665C7.35 26.815 7.43 27.035 7.43 27.325C7.43 27.625 7.35 27.855 7.19 28.015C7.04 28.165 6.815 28.24 6.515 28.24H2.285V30.715H6.17C6.48 30.715 6.71 30.795 6.86 30.955C7.02 31.105 7.1 31.33 7.1 31.63C7.1 31.93 7.02 32.16 6.86 32.32C6.71 32.47 6.48 32.545 6.17 32.545H2.285V35.185H6.515C6.815 35.185 7.04 35.265 7.19 35.425C7.35 35.575 7.43 35.795 7.43 36.085C7.43 36.385 7.35 36.615 7.19 36.775C7.04 36.925 6.815 37 6.515 37H1.28ZM9.91309 37.135C9.61309 37.135 9.36309 37.055 9.16309 36.895C8.97309 36.725 8.86309 36.52 8.83309 36.28C8.80309 36.03 8.88309 35.775 9.07309 35.515L12.3881 31.12V32.155L9.20809 27.925C9.01809 27.655 8.93309 27.4 8.95309 27.16C8.98309 26.91 9.09309 26.705 9.28309 26.545C9.48309 26.375 9.72809 26.29 10.0181 26.29C10.2681 26.29 10.4831 26.35 10.6631 26.47C10.8531 26.59 11.0431 26.78 11.2331 27.04L13.7081 30.46H12.9581L15.4181 27.04C15.6081 26.77 15.7981 26.58 15.9881 26.47C16.1781 26.35 16.3981 26.29 16.6481 26.29C16.9481 26.29 17.1931 26.37 17.3831 26.53C17.5831 26.69 17.6931 26.895 17.7131 27.145C17.7431 27.385 17.6581 27.645 17.4581 27.925L14.2631 32.155V31.12L17.5631 35.515C17.7631 35.775 17.8481 36.03 17.8181 36.28C17.7981 36.52 17.6881 36.725 17.4881 36.895C17.2981 37.055 17.0481 37.135 16.7381 37.135C16.4981 37.135 16.2831 37.075 16.0931 36.955C15.9131 36.835 15.7231 36.64 15.5231 36.37L12.9431 32.815H13.7081L11.1281 36.37C10.9381 36.64 10.7481 36.835 10.5581 36.955C10.3681 37.075 10.1531 37.135 9.91309 37.135ZM24.1372 37.165C23.0972 37.165 22.1822 36.94 21.3922 36.49C20.6122 36.03 20.0022 35.39 19.5622 34.57C19.1322 33.75 18.9172 32.795 18.9172 31.705C18.9172 30.875 19.0372 30.13 19.2772 29.47C19.5272 28.8 19.8822 28.23 20.3422 27.76C20.8022 27.28 21.3522 26.91 21.9922 26.65C22.6422 26.39 23.3572 26.26 24.1372 26.26C25.1972 26.26 26.1172 26.485 26.8972 26.935C27.6772 27.385 28.2822 28.02 28.7122 28.84C29.1522 29.65 29.3722 30.6 29.3722 31.69C29.3722 32.52 29.2472 33.27 28.9972 33.94C28.7472 34.61 28.3922 35.185 27.9322 35.665C27.4722 36.145 26.9222 36.515 26.2822 36.775C25.6422 37.035 24.9272 37.165 24.1372 37.165ZM24.1372 35.185C24.7272 35.185 25.2272 35.05 25.6372 34.78C26.0572 34.5 26.3772 34.1 26.5972 33.58C26.8272 33.05 26.9422 32.425 26.9422 31.705C26.9422 30.605 26.6972 29.755 26.2072 29.155C25.7172 28.545 25.0272 28.24 24.1372 28.24C23.5572 28.24 23.0572 28.375 22.6372 28.645C22.2172 28.915 21.8972 29.31 21.6772 29.83C21.4572 30.35 21.3472 30.975 21.3472 31.705C21.3472 32.795 21.5922 33.65 22.0822 34.27C22.5722 34.88 23.2572 35.185 24.1372 35.185ZM32.4907 37.135C32.1107 37.135 31.8207 37.03 31.6207 36.82C31.4207 36.61 31.3207 36.315 31.3207 35.935V27.61C31.3207 27.22 31.4207 26.925 31.6207 26.725C31.8307 26.525 32.1257 26.425 32.5057 26.425H36.1507C37.3307 26.425 38.2407 26.71 38.8807 27.28C39.5207 27.85 39.8407 28.645 39.8407 29.665C39.8407 30.325 39.6957 30.895 39.4057 31.375C39.1157 31.855 38.6957 32.225 38.1457 32.485C37.6057 32.745 36.9407 32.875 36.1507 32.875L36.2707 32.62H36.8857C37.3057 32.62 37.6707 32.725 37.9807 32.935C38.3007 33.135 38.5757 33.445 38.8057 33.865L39.7357 35.59C39.8757 35.84 39.9407 36.085 39.9307 36.325C39.9207 36.565 39.8307 36.76 39.6607 36.91C39.4907 37.06 39.2407 37.135 38.9107 37.135C38.5807 37.135 38.3107 37.065 38.1007 36.925C37.9007 36.785 37.7207 36.57 37.5607 36.28L36.1207 33.625C35.9707 33.345 35.7857 33.155 35.5657 33.055C35.3557 32.955 35.0957 32.905 34.7857 32.905H33.6457V35.935C33.6457 36.315 33.5457 36.61 33.3457 36.82C33.1557 37.03 32.8707 37.135 32.4907 37.135ZM33.6457 31.225H35.7307C36.3507 31.225 36.8157 31.1 37.1257 30.85C37.4457 30.6 37.6057 30.225 37.6057 29.725C37.6057 29.235 37.4457 28.865 37.1257 28.615C36.8157 28.365 36.3507 28.24 35.7307 28.24H33.6457V31.225ZM43.13 37C42.74 37 42.44 36.895 42.23 36.685C42.02 36.475 41.915 36.175 41.915 35.785V27.64C41.915 27.25 42.02 26.95 42.23 26.74C42.44 26.53 42.74 26.425 43.13 26.425H46.055C47.865 26.425 49.26 26.885 50.24 27.805C51.23 28.715 51.725 30.015 51.725 31.705C51.725 32.555 51.595 33.31 51.335 33.97C51.085 34.62 50.72 35.17 50.24 35.62C49.76 36.07 49.17 36.415 48.47 36.655C47.77 36.885 46.965 37 46.055 37H43.13ZM44.24 35.095H45.92C46.49 35.095 46.985 35.025 47.405 34.885C47.825 34.745 48.175 34.535 48.455 34.255C48.735 33.975 48.945 33.625 49.085 33.205C49.225 32.775 49.295 32.275 49.295 31.705C49.295 30.565 49.01 29.72 48.44 29.17C47.88 28.61 47.04 28.33 45.92 28.33H44.24V35.095ZM54.8512 37.135C54.4712 37.135 54.1812 37.03 53.9812 36.82C53.7812 36.61 53.6812 36.315 53.6812 35.935V27.49C53.6812 27.11 53.7812 26.815 53.9812 26.605C54.1812 26.395 54.4712 26.29 54.8512 26.29C55.2212 26.29 55.5062 26.395 55.7062 26.605C55.9062 26.815 56.0062 27.11 56.0062 27.49V35.935C56.0062 36.315 55.9062 36.61 55.7062 36.82C55.5162 37.03 55.2312 37.135 54.8512 37.135ZM62.8143 37.165C62.0643 37.165 61.3993 37.07 60.8193 36.88C60.2493 36.68 59.7693 36.39 59.3793 36.01C58.9893 35.63 58.6943 35.155 58.4943 34.585C58.3043 34.005 58.2093 33.335 58.2093 32.575V27.475C58.2093 27.085 58.3093 26.79 58.5093 26.59C58.7093 26.39 58.9993 26.29 59.3793 26.29C59.7493 26.29 60.0343 26.39 60.2343 26.59C60.4343 26.79 60.5343 27.085 60.5343 27.475V32.59C60.5343 33.45 60.7293 34.1 61.1193 34.54C61.5093 34.97 62.0743 35.185 62.8143 35.185C63.5543 35.185 64.1143 34.97 64.4943 34.54C64.8843 34.1 65.0793 33.45 65.0793 32.59V27.475C65.0793 27.085 65.1793 26.79 65.3793 26.59C65.5793 26.39 65.8643 26.29 66.2343 26.29C66.6043 26.29 66.8843 26.39 67.0743 26.59C67.2743 26.79 67.3743 27.085 67.3743 27.475V32.575C67.3743 33.585 67.1993 34.435 66.8493 35.125C66.5093 35.805 65.9993 36.315 65.3193 36.655C64.6493 36.995 63.8143 37.165 62.8143 37.165ZM70.6618 37.135C70.3218 37.135 70.0618 37.04 69.8818 36.85C69.7018 36.66 69.6118 36.395 69.6118 36.055V27.37C69.6118 27.03 69.7068 26.765 69.8968 26.575C70.0968 26.385 70.3668 26.29 70.7068 26.29C71.0068 26.29 71.2418 26.35 71.4118 26.47C71.5918 26.58 71.7568 26.775 71.9068 27.055L75.3718 33.385H74.8618L78.3268 27.055C78.4768 26.775 78.6368 26.58 78.8068 26.47C78.9868 26.35 79.2218 26.29 79.5118 26.29C79.8518 26.29 80.1118 26.385 80.2918 26.575C80.4818 26.765 80.5768 27.03 80.5768 27.37V36.055C80.5768 36.395 80.4868 36.66 80.3068 36.85C80.1268 37.04 79.8668 37.135 79.5268 37.135C79.1868 37.135 78.9218 37.04 78.7318 36.85C78.5518 36.66 78.4618 36.395 78.4618 36.055V29.98H78.7918L76.0018 34.975C75.8818 35.165 75.7518 35.31 75.6118 35.41C75.4818 35.5 75.3068 35.545 75.0868 35.545C74.8668 35.545 74.6868 35.495 74.5468 35.395C74.4068 35.295 74.2818 35.155 74.1718 34.975L71.3518 29.965H71.7118V36.055C71.7118 36.395 71.6218 36.66 71.4418 36.85C71.2718 37.04 71.0118 37.135 70.6618 37.135Z" fill="#477D7C"/>
</svg>
